<?xml version="1.0" standalone="no"?>
<!DOCTYPE svg PUBLIC "-//W3C//DTD SVG 20010904//EN"
 "http://www.w3.org/TR/2001/REC-SVG-20010904/DTD/svg10.dtd">
<svg version="1.0" xmlns="http://www.w3.org/2000/svg"
 width="6116.000000pt" height="3862.000000pt" viewBox="0 0 6116.000000 3862.000000"
 preserveAspectRatio="xMidYMid meet">

<g transform="translate(0.000000,3862.000000) scale(0.100000,-0.100000)"
fill="#000000" stroke="none">
<path d="M53292 36305 c684 -715 2299 -2400 3588 -3745 1288 -1345 2369 -2481
2402 -2524 281 -377 285 -907 10 -1296 -61 -86 -182 -205 -264 -259 -36 -24
-1575 -967 -3420 -2095 l-3353 -2051 -5 -8355 -5 -8355 -27 -100 c-38 -138
-130 -318 -218 -427 -81 -100 -194 -195 -313 -262 -77 -43 -1641 -671 -11009
-4418 -1731 -692 -2881 -1147 -2935 -1161 l-88 -22 -14920 -3 c-10631 -2
-14951 0 -15027 8 -139 14 -257 48 -390 113 -60 29 -108 52 -108 51 0 -10 181
-134 233 -161 96 -48 257 -100 352 -113 58 -8 4139 -10 15050 -8 l14970 3 80
22 c62 17 6543 2600 6670 2658 17 8 1629 653 3582 1434 1954 782 3585 1437
3625 1457 282 142 494 403 571 704 14 52 27 120 31 150 3 30 6 3792 6 8360 l0
8305 3388 2072 c1863 1140 3412 2092 3442 2116 201 159 344 388 397 637 28
133 24 355 -10 481 -54 206 -143 363 -295 522 -147 154 -683 714 -2722 2842
-1075 1122 -2366 2470 -2869 2995 -503 525 -964 1007 -1025 1070 -61 63 -163
169 -226 235 -63 66 -166 173 -229 237 -63 65 -117 121 -120 125 -4 4 -19 19
-35 33 -16 14 531 -560 1216 -1275z"/>
<path d="M14565 34421 c-3762 -1506 -6855 -2745 -6873 -2755 -17 -9 -43 -33
-56 -54 -13 -20 -1330 -2483 -2927 -5472 l-2903 -5435 -4 -67 c-3 -55 0 -76
18 -114 27 -55 91 -100 154 -109 22 -3 1103 -14 2401 -25 1298 -11 2555 -22
2792 -26 l433 -6 2 -9053 3 -9053 30 -43 c17 -23 50 -53 74 -66 l44 -23 14899
0 14898 0 6853 2741 c6065 2426 6856 2745 6891 2778 21 20 46 52 55 71 15 32
16 701 21 8579 l5 8545 240 146 c132 81 1747 1069 3588 2195 3713 2271 3397
2068 3405 2190 3 47 -1 73 -15 106 -15 33 -858 919 -3373 3544 -1844 1925
-3374 3521 -3399 3546 -25 25 -125 128 -221 229 -259 271 -331 342 -367 357
-27 11 -2474 13 -14930 12 l-14898 -1 -6840 -2737z m29165 -206 l-6285 -2515
-7882 0 -7883 0 0 2515 0 2515 14168 0 14167 -1 -6285 -2514z m10850 -1163
c1909 -1993 3470 -3625 3468 -3626 -4 -3 -6341 -3879 -8463 -5176 -896 -548
-2047 -1252 -2556 -1563 -509 -312 -933 -569 -941 -572 -17 -7 -7884 9273
-7871 9285 4 4 1349 558 2988 1230 1639 673 3120 1280 3290 1350 171 70 459
188 640 263 182 74 596 244 920 377 325 134 626 257 670 275 236 96 2828 1160
2875 1180 30 13 129 53 220 89 91 37 174 71 185 76 11 6 59 26 108 45 205 82
264 106 292 119 17 8 59 26 95 40 36 13 115 46 175 71 61 26 139 58 175 72 59
22 122 49 190 81 14 6 35 10 47 9 14 -1 1176 -1207 3493 -3625z m-33340 1108
l0 -2460 -6147 0 -6148 1 4640 1857 c2552 1022 5315 2129 6140 2459 825 331
1503 602 1508 602 4 1 7 -1106 7 -2459z m16551 -2960 c35 -41 73 -86 84 -99
11 -13 54 -63 95 -111 41 -48 129 -151 195 -230 66 -79 134 -159 152 -179 17
-20 49 -57 70 -83 21 -25 67 -79 102 -120 72 -84 67 -77 224 -263 65 -77 140
-165 166 -195 26 -30 1008 -1189 2182 -2575 1174 -1386 2337 -2758 2584 -3050
247 -291 498 -588 559 -660 60 -71 144 -170 187 -220 42 -49 395 -466 783
-925 609 -719 714 -839 758 -862 60 -33 124 -36 183 -9 32 15 4645 2831 4778
2917 l37 24 0 -8308 0 -8308 -312 -126 c-290 -116 -12858 -5144 -12885 -5155
-10 -4 -13 2861 -13 14308 0 7872 2 14310 4 14308 2 -2 32 -38 67 -79z m-693
56 c-2 -7 -1483 -2410 -3293 -5339 l-3290 -5326 -225 -1 c-124 0 -6016 52
-13095 115 -7079 63 -13196 117 -13595 120 -399 3 -838 8 -976 11 l-251 6 100
187 c54 102 112 209 127 236 36 64 229 427 305 570 31 61 65 124 75 140 9 17
40 73 67 125 226 428 4886 9147 4895 9157 16 20 29161 19 29156 -1z m182
-14631 l0 -14075 -14625 0 -14625 0 0 8900 0 8900 138 0 c77 0 5167 -45 11313
-100 7117 -64 11186 -97 11207 -91 62 18 100 51 150 129 27 42 1196 1933 2598
4202 1401 2269 2576 4170 2611 4225 34 55 73 118 86 140 21 35 152 245 177
285 5 8 19 31 30 50 11 19 34 55 50 80 16 25 52 83 80 130 28 47 110 180 183
297 73 117 242 390 375 608 134 217 246 395 248 395 2 0 4 -6334 4 -14075z"/>
<path d="M1430 19680 c156 -136 377 -234 582 -259 49 -6 814 -17 1878 -26 987
-8 2026 -18 2308 -21 l512 -7 0 57 c0 31 -1 57 -2 57 -2 1 -1087 12 -2413 25
-2368 22 -2412 23 -2509 44 -111 24 -240 73 -331 125 l-60 36 35 -31z"/>
</g>
</svg>
